# xmcd
# 
# Track frame offsets:
#     150
#     14121
#     25400
#     40295
#     57054
#     76760
#     97357
#     108960
#     127331
#     140910
#     158132
#     171198
#     186909
#     206049
#     220213
#     236490
#     249163
#     262452
# 
# Disc length: 3817
# 
# Revision: 2
# Processed by: cddbd v1.5.1PL0 Copyright (c) Steve Scherf et al.
# Submitted via: BonkEnc v1.0beta2
# 
DISCID=140ee712
DTITLE=Various Artist - Country Songs of American 3
DYEAR=2000
DGENRE=Country
TTITLE0=Where Have All The Flowers Gone
TTITLE1=Take Me Home Country Road
TTITLE2=River Of No Return
TTITLE3=Try To Remember
TTITLE4=Love Me Tender
TTITLE5=You've Got A Friend
TTITLE6=Rhythm Of The Rain
TTITLE7=I Love You So
TTITLE8=Tennessee Waltz
TTITLE9=Leaving On A Jet Plane
TTITLE10=California Dream
TTITLE11=Always On My Mind
TTITLE12=Don't Cry Joni
TTITLE13=It Never Rains In Southern California
TTITLE14=Unchained Melody
TTITLE15=I'll Never Fall In Love Again
TTITLE16=Moon River
TTITLE17=The Wedding
EXTD=
EXTT0=
EXTT1=
EXTT2=
EXTT3=
EXTT4=
EXTT5=
EXTT6=
EXTT7=
EXTT8=
EXTT9=
EXTT10=
EXTT11=
EXTT12=
EXTT13=
EXTT14=
EXTT15=
EXTT16=
EXTT17=
PLAYORDER=
